<svg xmlns="http://www.w3.org/2000/svg" viewBox="0 0 64 64">
  <rect width="64" height="64" fill="#080815"/>
  <!-- lua pixelada -->
  <rect x="40" y="8" width="12" height="12" fill="#00eeff"/>
  <rect x="36" y="12" width="4" height="4" fill="#00eeff"/>
  <rect x="44" y="20" width="4" height="4" fill="#00eeff"/>
  <!-- estrelas -->
  <rect x="8" y="10" width="2" height="2" fill="#f2f2f2"/>
  <rect x="20" y="18" width="2" height="2" fill="#f2f2f2"/>
  <rect x="14" y="28" width="2" height="2" fill="#0f776e"/>
  <rect x="54" y="30" width="2" height="2" fill="#f2f2f2"/>
  <!-- montanhas -->
  <path d="M0 48 L12 34 L22 44 L34 30 L46 44 L56 36 L64 44 V64 H0 Z" fill="#0f776e"/>
  <path d="M0 54 L10 46 L24 56 L40 44 L52 54 L64 48 V64 H0 Z" fill="#0a4a44"/>
  <!-- reflexo -->
  <rect x="0" y="58" width="64" height="6" fill="#050510"/>
  <rect x="42" y="59" width="8" height="1.5" fill="#00eeff" opacity="0.5"/>
</svg>
