<svg xmlns="http://www.w3.org/2000/svg" viewBox="0 0 64 64">
  <rect width="64" height="64" fill="#080815"/>
  <!-- torres góticas (Hollow Knight - City of Tears) -->
  <g fill="#0f776e">
    <rect x="6" y="28" width="8" height="36"/>
    <rect x="8" y="22" width="4" height="6"/>
    <rect x="18" y="34" width="10" height="30"/>
    <rect x="21" y="26" width="4" height="8"/>
    <rect x="34" y="30" width="9" height="34"/>
    <rect x="37" y="22" width="3" height="8"/>
    <rect x="48" y="36" width="10" height="28"/>
    <rect x="51" y="28" width="4" height="8"/>
  </g>
  <!-- janelas acesas -->
  <g fill="#00eeff" opacity="0.85">
    <rect x="9" y="34" width="2" height="3"/>
    <rect x="22" y="40" width="2" height="3"/>
    <rect x="37" y="38" width="2" height="3"/>
    <rect x="51" y="42" width="2" height="3"/>
    <rect x="9" y="46" width="2" height="3"/>
    <rect x="38" y="50" width="2" height="3"/>
  </g>
  <!-- chuva -->
  <g stroke="#00eeff" stroke-width="1" opacity="0.55">
    <line x1="12" y1="4" x2="10" y2="12"/>
    <line x1="24" y1="8" x2="22" y2="16"/>
    <line x1="34" y1="2" x2="32" y2="10"/>
    <line x1="44" y1="10" x2="42" y2="18"/>
    <line x1="54" y1="4" x2="52" y2="12"/>
    <line x1="18" y1="20" x2="16" y2="28"/>
    <line x1="60" y1="20" x2="58" y2="28"/>
    <line x1="30" y1="16" x2="28" y2="24"/>
  </g>
</svg>
